<svg id="레이어_1" data-name="레이어 1" xmlns="http://www.w3.org/2000/svg" viewBox="0 0 89.4 88.8"><defs><style>.cls-1{fill:#62cfff;}</style></defs><path class="cls-1" d="M50,94.3A43.78,43.78,0,0,1,14.4,76.4a2.64,2.64,0,1,1,4.2-3.2A38.66,38.66,0,0,0,50,89a39.1,39.1,0,0,0,0-78.2,38.64,38.64,0,0,0-33.5,19A2.69,2.69,0,1,1,11.9,27,44.42,44.42,0,1,1,50,94.3Z" transform="translate(-5 -5.5)"/><path class="cls-1" d="M12.4,35.1a2.81,2.81,0,0,1-.8-5.5l16-4.6a2.82,2.82,0,1,1,1.6,5.4L13.2,35A2.49,2.49,0,0,1,12.4,35.1Z" transform="translate(-5 -5.5)"/><path class="cls-1" d="M12.4,35.1a2.88,2.88,0,0,1-2.7-2L5.1,17A2.86,2.86,0,0,1,7,13.5a2.86,2.86,0,0,1,3.5,1.9l4.6,16.1A2.86,2.86,0,0,1,13.2,35,2.49,2.49,0,0,1,12.4,35.1Z" transform="translate(-5 -5.5)"/><path class="cls-1" d="M36.6,55.5a2.81,2.81,0,0,1-1.9-.7,2.75,2.75,0,0,1-.2-4L49.2,34.1a2.83,2.83,0,0,1,4.2,3.8L38.7,54.6A2.72,2.72,0,0,1,36.6,55.5Z" transform="translate(-5 -5.5)"/><path class="cls-1" d="M66,55.5a2.88,2.88,0,0,1-2.1-.9L49.2,37.9a2.85,2.85,0,0,1,.3-4,2.81,2.81,0,0,1,3.9.2L68.1,50.8a2.85,2.85,0,0,1-.3,4A2.41,2.41,0,0,1,66,55.5Z" transform="translate(-5 -5.5)"/><polygon class="cls-1" points="46.3 33.5 36.8 44.3 36.8 44.3 36.8 55.5 43.8 55.5 43.8 47.7 49.2 47.6 49.2 55.5 55.9 55.5 55.9 44.9 55.9 44.3 46.3 33.5"/></svg>